<svg width="196" height="20" viewBox="0 0 196 20" fill="none" xmlns="http://www.w3.org/2000/svg">
<path d="M0 15.8576L14.5362 0.215088H20.6267L12.8258 15.8576H0Z" fill="#F94034"/>
<path d="M22.9502 0.215088L17.9751 15.8576H28.9004L28.8982 0.215088H22.9502Z" fill="#F94034"/>
<path d="M37.428 1.3H47.76V3.673H40.263V7.411H45.87V9.7H40.263V16H37.428V1.3Z" fill="black"/>
<path d="M58.9487 16H56.4917L56.3237 14.908C55.9737 15.3 55.5537 15.608 55.0637 15.832C54.5877 16.042 54.0767 16.147 53.5307 16.147C52.7187 16.147 52.0187 15.972 51.4307 15.622C50.8427 15.272 50.3877 14.768 50.0657 14.11C49.7437 13.438 49.5827 12.612 49.5827 11.632V5.5H52.2917V11.296C52.2917 12.094 52.4457 12.703 52.7537 13.123C53.0757 13.529 53.5657 13.732 54.2237 13.732C54.8817 13.732 55.3857 13.522 55.7357 13.102C56.0857 12.682 56.2607 12.073 56.2607 11.275V5.5H58.9487V16Z" fill="black"/>
<path d="M61.5217 0.880001H64.2097V16H61.5217V0.880001Z" fill="black"/>
<path d="M66.7922 0.880001H69.4802V16H66.7922V0.880001Z" fill="black"/>
<path d="M71.4958 1.3H83.4028V3.673H78.8668V16H76.0317V3.673H71.4958V1.3Z" fill="black"/>
<path d="M83.5061 5.5H85.9421L86.1311 6.844C86.4251 6.48 86.7541 6.186 87.1181 5.962C87.4961 5.724 87.9091 5.563 88.3571 5.479C88.8051 5.381 89.2741 5.388 89.7641 5.5V8.02C89.3861 7.894 88.9871 7.859 88.5671 7.915C88.1611 7.971 87.7761 8.118 87.4121 8.356C87.0621 8.594 86.7681 8.937 86.5301 9.385C86.3061 9.819 86.1941 10.372 86.1941 11.044V16H83.5061V5.5Z" fill="black"/>
<path d="M100.703 16H98.2457L98.0776 14.908C97.7276 15.3 97.3076 15.608 96.8176 15.832C96.3416 16.042 95.8306 16.147 95.2846 16.147C94.4726 16.147 93.7727 15.972 93.1847 15.622C92.5967 15.272 92.1416 14.768 91.8196 14.11C91.4976 13.438 91.3367 12.612 91.3367 11.632V5.5H94.0457V11.296C94.0457 12.094 94.1996 12.703 94.5076 13.123C94.8296 13.529 95.3196 13.732 95.9776 13.732C96.6356 13.732 97.1397 13.522 97.4897 13.102C97.8397 12.682 98.0146 12.073 98.0146 11.275V5.5H100.703V16Z" fill="black"/>
<path d="M107.896 16.147C106.874 16.147 105.978 15.923 105.208 15.475C104.438 15.027 103.836 14.404 103.402 13.606C102.968 12.794 102.751 11.856 102.751 10.792C102.751 9.714 102.968 8.769 103.402 7.957C103.85 7.145 104.459 6.508 105.229 6.046C106.013 5.584 106.916 5.353 107.938 5.353C109.044 5.353 110.024 5.626 110.878 6.172C111.732 6.718 112.341 7.453 112.705 8.377L110.227 9.091C110.045 8.685 109.758 8.363 109.366 8.125C108.988 7.887 108.554 7.768 108.064 7.768C107.574 7.768 107.14 7.894 106.762 8.146C106.398 8.398 106.111 8.748 105.901 9.196C105.705 9.644 105.607 10.169 105.607 10.771C105.607 11.681 105.831 12.402 106.279 12.934C106.727 13.466 107.329 13.732 108.085 13.732C108.561 13.732 108.995 13.62 109.387 13.396C109.779 13.158 110.073 12.836 110.269 12.43L112.747 13.144C112.369 14.054 111.739 14.782 110.857 15.328C109.989 15.874 109.002 16.147 107.896 16.147Z" fill="black"/>
<path d="M114.801 0.880001H117.51V9.595H118.182L121.647 5.5H125.154L120.534 10.708L125.196 16H121.668L118.161 11.842H117.51V16H114.801V0.880001Z" fill="black"/>
</svg>
