<?xml version="1.0" encoding="UTF-8"?>
<svg id="INFO" xmlns="http://www.w3.org/2000/svg" version="1.1" viewBox="0 0 525.8 200.5">
  <!-- Generator: Adobe Illustrator 30.0.0, SVG Export Plug-In . SVG Version: 2.1.1 Build 123)  -->
  <path d="M493.4,54.6v14.5c-2.6-5.2-6.6-9.3-11.9-12.2s-11.5-4.3-18.8-4.3-14.3,1.9-20.8,5.6-11.8,9.2-15.9,16.5-6.1,15.9-6.1,26,2,18.8,6.1,26.1c4.1,7.3,9.4,12.9,15.9,16.6,6.5,3.7,13.5,5.6,20.8,5.6s1.7,0,2.5,0h.2c13.9-.7,20.9-6.7,28.4-9.4,2.2-.8,4.4-1.3,6.8-1.3,6.9,0,12,3.5,16,10.8V54.6h-23.4,0ZM485.8,120.2c-4.7,4.7-10.2,7-16.6,7s-13-2.4-17.7-7.3c-4.7-4.8-7.1-11.3-7.1-19.2s2.4-14.2,7.1-19c4.7-4.8,10.6-7.3,17.7-7.3s7.7,1,11.3,3.1,6.5,5.1,8.8,9.1c2.3,4,3.4,8.7,3.4,14,0,8.4-2.3,14.9-7,19.5h0Z"/>
  <path d="M96.2,93v54h-24.9v-50.1c0-7.7-1.7-13.3-5.1-16.9-3.4-3.5-7.7-5.3-13-5.3s-10.9,2.3-14.6,6.8c-3.7,4.5-5.6,10.4-5.6,17.6v47.9H8.2V13.1h24.8v54.8c3-4.7,7-8.4,12-11.1,5-2.7,10.5-4,16.5-4,10.1,0,18.4,3.4,24.9,10.2,6.5,6.8,9.8,16.8,9.8,30h0Z"/>
  <path d="M109.8,125.3c-4.2-7.3-6.4-15.5-6.4-24.5s2.1-17.2,6.4-24.5c4.3-7.3,10.1-13.1,17.6-17.3,7.5-4.2,15.9-6.3,25.3-6.3s17.9,2.1,25.3,6.3,13.3,10,17.6,17.3c4.3,7.3,6.4,15.5,6.4,24.5s-2.1,17.2-6.4,24.5c-4.3,7.3-10.1,13.1-17.6,17.4-7.5,4.3-15.9,6.4-25.3,6.4s-17.9-2.1-25.3-6.4c-7.5-4.3-13.3-10-17.6-17.4ZM177.4,100.7c0-7.7-2.3-14.1-7-19s-10.6-7.5-17.8-7.5-13.1,2.5-17.8,7.5c-4.6,5-7,11.3-7,19s2.3,14.2,7,19.2c4.6,4.9,10.6,7.4,17.8,7.4s13.1-2.5,17.8-7.4c4.6-4.9,7-11.3,7-19.2Z"/>
  <path d="M209.1,147V13.1h24.7v133.9h-24.7Z"/>
  <path d="M240.2,24.9c0-4.2,1.5-7.8,4.6-10.8,3.1-3,6.8-4.5,11.1-4.5s7.8,1.5,10.9,4.5c3.1,3,4.6,6.6,4.6,10.8s-1.5,7.8-4.6,10.7c-3.1,3-6.7,4.4-10.9,4.4s-8-1.5-11.1-4.4c-3.1-3-4.6-6.5-4.6-10.7ZM243.5,147V54.7h24.8v92.3h-24.8Z"/>
  <path d="M302.5,54.7v-6.1c0-10.6,5.6-15.9,16.7-15.9s2.8.1,5.7.4V13.3c-5-1-9.4-1.6-13.2-1.6-10.2,0-18.4,3.2-24.7,9.6-6.2,6.4-9.3,15.8-9.3,28.1v97.6h24.8v-72.5h16.7v-19.8h-16.7Z"/>
  <path d="M388.1,54.8v47.9c0,7.2-1.9,13.1-5.6,17.6s-8.6,6.8-14.6,6.8-9.6-1.8-13-5.3c-3.4-3.5-5.1-9.2-5.1-16.9v-50.1h-24.9v54c0,13.2,3.3,23.2,9.8,30s14.9,10.2,24.9,10.2,11.5-1.3,16.5-4c5-2.7,9-6.4,12-11.1v13.8c0,6.8-1.6,12-4.8,15.7-3.2,3.7-8.1,5.5-14.6,5.5s-8.6-1.1-11.4-3.2-4.5-5-5.3-8.5h-24.9c1.3,9.8,5.4,17.9,12.4,24.2,6.9,6.3,16.8,9.4,29.7,9.4s25-4.1,32.5-12.2,11.3-19.4,11.3-33.8V54.8h-24.8,0Z"/>
</svg>