<?xml version="1.0" encoding="utf-8"?>
<!-- Generator: Adobe Illustrator 26.0.1, SVG Export Plug-In . SVG Version: 6.00 Build 0)  -->
<svg version="1.1" id="Layer_1" xmlns="http://www.w3.org/2000/svg" xmlns:xlink="http://www.w3.org/1999/xlink" x="0px" y="0px"
	 viewBox="0 0 589.5 180.3" style="enable-background:new 0 0 589.5 180.3;" xml:space="preserve">
<style type="text/css">
	.st0{fill:#FFFFFF;}
	.st1{fill:#1F5AA8;}
	.st2{fill:#898989;}
	.st3{fill:url(#SVGID_1_);}
	.st4{fill:url(#SVGID_00000032607913036286647910000015026459268975732155_);}
	.st5{fill:url(#SVGID_00000066474716601484301390000017606973059758255258_);}
	.st6{fill:url(#SVGID_00000093880919715814738890000006249660484986047908_);}
	.st7{fill:url(#SVGID_00000029019925463252721620000002678978984613796490_);}
</style>
<polygon class="st0" points="57.7,143.5 78.2,125.1 83.4,118.6 64.7,121.2 "/>
<g>
	<path class="st1" d="M223.9,64.8v62h-0.6l-38.7-35v34h-13.1V63.8h0.6l38.6,35v-34L223.9,64.8L223.9,64.8z"/>
	<path class="st1" d="M284.7,95.3c0-17.4,15.2-31.7,33.9-31.7s33.9,14.2,33.9,31.7c0,17.3-15.3,31.4-33.9,31.4
		C299.9,126.8,284.7,112.6,284.7,95.3z M339.2,95.3c0-10.6-9.3-19.3-20.7-19.3c-11.4,0-20.6,8.7-20.6,19.3
		c0,10.5,9.2,19.2,20.6,19.2C329.9,114.4,339.2,105.8,339.2,95.3z"/>
</g>
<g>
	<path class="st2" d="M65.1,41.4v0.5h-2.2v5.8h-0.5v-5.8h-2.2v-0.5H65.1z"/>
	<path class="st2" d="M72.4,41.4l0.4,6.2h-0.5l-0.3-5.1l-2.4,5.1h-0.4l-2.4-5.1l-0.3,5.1H66l0.4-6.2h0.5l2.5,5.4l2.5-5.4H72.4z"/>
</g>
<g>
	<rect x="235.4" y="116.8" class="st1" width="40.4" height="10"/>
	<polygon class="st1" points="275.8,64.4 235.4,64.4 235.4,74.4 275.8,74.4 	"/>
	<rect x="235.4" y="90.6" class="st1" width="40.4" height="10"/>
</g>
<linearGradient id="SVGID_1_" gradientUnits="userSpaceOnUse" x1="14.5485" y1="30.258" x2="190.5828" y2="106.9082" gradientTransform="matrix(1 0 0 -1 0 154.0397)">
	<stop  offset="0.2876" style="stop-color:#05BBD3"/>
	<stop  offset="0.7028" style="stop-color:#1F5AA8"/>
</linearGradient>
<polygon class="st3" points="148.8,65.5 145.4,65.5 102.3,65.5 98.8,65.5 77.8,84.4 77.8,84.4 52.7,107 56.1,107 99.1,107 
	102.6,107 127.8,84.4 127.8,84.4 "/>
<linearGradient id="SVGID_00000146479723315777323520000015613152801848463749_" gradientUnits="userSpaceOnUse" x1="26.3601" y1="21.5519" x2="218.3584" y2="21.5519" gradientTransform="matrix(1 0 0 -1 0 154.0397)">
	<stop  offset="0" style="stop-color:#05BBD3"/>
	<stop  offset="0.2671" style="stop-color:#0E98C3"/>
	<stop  offset="0.5754" style="stop-color:#1776B5"/>
	<stop  offset="0.8309" style="stop-color:#1D62AB"/>
	<stop  offset="1" style="stop-color:#1F5AA8"/>
</linearGradient>
<polygon style="fill:url(#SVGID_00000146479723315777323520000015613152801848463749_);" points="148.8,111.8 145.4,111.8 
	102.3,111.8 98.8,111.8 77.8,130.6 77.8,130.6 52.7,153.2 56.1,153.2 99.1,153.2 102.6,153.2 127.8,130.6 127.8,130.6 "/>
<linearGradient id="SVGID_00000131326748355921898310000001618080166898351273_" gradientUnits="userSpaceOnUse" x1="-18.8928" y1="-288.2527" x2="73.3617" y2="-288.2527" gradientTransform="matrix(0 -1 -1 0 -210.6021 146.9211)">
	<stop  offset="0" style="stop-color:#05BBD3"/>
	<stop  offset="0.2671" style="stop-color:#0E98C3"/>
	<stop  offset="0.5754" style="stop-color:#1776B5"/>
	<stop  offset="0.8309" style="stop-color:#1D62AB"/>
	<stop  offset="1" style="stop-color:#1F5AA8"/>
</linearGradient>
<polygon style="fill:url(#SVGID_00000131326748355921898310000001618080166898351273_);" points="102.6,107 102.6,153.2 52.7,153.2 
	52.7,107 "/>
<linearGradient id="SVGID_00000013892718980649650900000002848692731954039727_" gradientUnits="userSpaceOnUse" x1="74.0758" y1="-334.4328" x2="127.3655" y2="-334.4328" gradientTransform="matrix(0 -1 -1 0 -210.6021 146.9211)">
	<stop  offset="0" style="stop-color:#05BBD3"/>
	<stop  offset="0.2671" style="stop-color:#0E98C3"/>
	<stop  offset="0.5754" style="stop-color:#1776B5"/>
	<stop  offset="0.8309" style="stop-color:#1D62AB"/>
	<stop  offset="1" style="stop-color:#1F5AA8"/>
</linearGradient>
<polygon style="fill:url(#SVGID_00000013892718980649650900000002848692731954039727_);" points="148.8,38.9 148.8,65.5 98.8,65.5 
	98.8,38.9 "/>
<linearGradient id="SVGID_00000151502458251885424430000016504109677845545403_" gradientUnits="userSpaceOnUse" x1="43.3891" y1="94.2419" x2="235.3876" y2="94.2419" gradientTransform="matrix(1 0 0 -1 0 154.0397)">
	<stop  offset="0.2105" style="stop-color:#05BBD3"/>
	<stop  offset="0.3093" style="stop-color:#0E98C3"/>
	<stop  offset="0.4233" style="stop-color:#1776B5"/>
	<stop  offset="0.5178" style="stop-color:#1D62AB"/>
	<stop  offset="0.5803" style="stop-color:#1F5AA8"/>
</linearGradient>
<polygon style="fill:url(#SVGID_00000151502458251885424430000016504109677845545403_);" points="148.8,38.9 145.4,38.9 102.3,38.9 
	98.8,38.9 77.8,57.9 77.8,57.9 52.7,80.7 56.1,80.7 99.1,80.7 102.6,80.7 127.8,57.9 127.8,57.9 "/>
<g>
	<path class="st1" d="M404.6,120.4c-3.4,1.2-6.9,1.8-10.5,1.8c-5.4,0-10.3-1.1-14.5-3.3c-4.2-2.2-7.5-5.3-9.9-9.3s-3.5-8.6-3.5-13.7
		c0-5.1,1.2-9.7,3.5-13.6s5.6-7.1,9.8-9.3c4.2-2.2,9-3.3,14.5-3.3c3.7,0,7.2,0.6,10.6,1.9c3.4,1.2,6.3,3,8.9,5.4l2.5-2.5
		c-2.8-2.6-6.1-4.7-9.9-6.1c-3.8-1.5-7.8-2.2-12.1-2.2c-6.1,0-11.6,1.3-16.5,3.8c-4.8,2.5-8.6,6.1-11.3,10.6c-2.7,4.5-4,9.7-4,15.5
		c0,5.8,1.3,10.9,4,15.4c2.7,4.5,6.4,8,11.3,10.5c4.8,2.5,10.3,3.8,16.5,3.8c4.2,0,8.2-0.7,12-2.1c3.8-1.4,7.2-3.4,10-6.1l-2.5-2.5
		C411,117.4,408,119.2,404.6,120.4z"/>
	<path class="st1" d="M532.9,80.9c-2.7-4.4-6.4-7.8-11.1-10.2c-4.8-2.4-10.2-3.7-16.4-3.7h-20.6v57.7h20.6c6.1,0,11.6-1.2,16.4-3.7
		c4.8-2.4,8.5-5.9,11.1-10.2s4-9.4,4-15C536.8,90.3,535.5,85.3,532.9,80.9z M529.5,109c-2.3,3.8-5.6,6.8-9.8,8.9
		c-4.2,2.1-9,3.2-14.3,3.2h-16.7V70.6h16.7c5.4,0,10.1,1.1,14.3,3.2c4.2,2.1,7.4,5.1,9.8,9c2.3,3.9,3.5,8.2,3.5,13.1
		C533,100.8,531.8,105.2,529.5,109z"/>
	<path class="st1" d="M449.6,67.1l-2.1,4.2l-25.7,53.5h3.9l6.5-13.5H467l6.6,13.5h3.8l-25.7-53.5L449.6,67.1z M456,88.1l1.3,2.8
		l8.1,17.2h-31.7l8.1-17c1.2-2.5,3.4-7.2,6.7-14.1l1-2.2h0.2C451.5,78.5,453.6,83,456,88.1z"/>
</g>
</svg>
